HIERARCHY
ROOT Hips
{
	OFFSET 0.00000 0.00000 0.00000
	CHANNELS 6 Xposition Yposition Zposition Yrotation Zrotation Xrotation 
	JOINT Lumbar
	{
		OFFSET 0 0 0
		CHANNELS 3 Zrotation Xrotation Yrotation
		JOINT Neck
		{
			OFFSET 0.00 0.2701 0.00
			CHANNELS 3 Zrotation Xrotation Yrotation
			End Site
			{
				OFFSET 0.00 0.1379 0.00
			}
		}
		JOINT RightShoulder
		{
			OFFSET 0.0119 0.2289 0.1181
			CHANNELS 3 Zrotation Xrotation Yrotation
			JOINT RightElbow
			{
				OFFSET 0.00 -0.1475 0.00
				CHANNELS 2 Zrotation Yrotation
				JOINT RightWrist
				{
					OFFSET 0.00 -0.1605 0.00
					CHANNELS 2 Zrotation Xrotation
					End Site
					{
						OFFSET 0.0040 -0.1068 0.0006
					}
				}
			}
		}
		JOINT LeftShoulder
		{
			OFFSET 0.0119 0.2289 -0.1181
			CHANNELS 3 Zrotation Xrotation Yrotation
			JOINT LeftElbow
			{
				OFFSET 0.00 -0.1475 0.00
				CHANNELS 2 Zrotation Yrotation
				JOINT LeftWrist
				{
					OFFSET 0.00 -0.1605 0.00
					CHANNELS 2 Zrotation Xrotation
					End Site
					{
						OFFSET 0.0040 -0.1068 -0.0006
					}
				}
			}
		}
	}
	JOINT RightHip
	{
		OFFSET 0.0316 -0.0424 0.0458
		CHANNELS 3 Zrotation Xrotation Yrotation
		JOINT RightKnee
		{
			OFFSET 0.00 -0.2438 0.00
			CHANNELS 1 Zrotation
			JOINT RightAnkle
			{
				OFFSET 0.00 -0.2449 0.00
				CHANNELS 3 Zrotation Xrotation Yrotation
				End Site
				{
					OFFSET 0.1237 -0.0542 0.0051
				}
			}
		}
	}
	JOINT LeftHip
	{
		OFFSET 0.0316 -0.0424 -0.0458
		CHANNELS 3 Zrotation Xrotation Yrotation
		JOINT LeftKnee
		{
			OFFSET 0.00 -0.2438 0.00
			CHANNELS 1 Zrotation
			JOINT LeftAnkle
			{
				OFFSET 0.00 -0.2449 0.00
				CHANNELS 3 Zrotation Xrotation Yrotation
				End Site
				{
					OFFSET 0.1237 -0.0542 -0.0051
				}
			}
		}
	}
}
MOTION
Frames: 31
Frame Time: 0.02
0.24037 0.56746 -0.07291 174.57574 0 -2.55211 5.26105 5.28757 -1.99098 -14.12147 3.48121 -0.6174 54.82775 -1.51755 21.14454 137.62444 4.23902 78.12086 -19.00462 0.0391 32.73089 -62.39023 63.17126 -121.27963 -77.78624 9.91752 -0.41488 12.18595 11.46305 -20.94549 12.25568 -8.67793 -7.93245 27.89797 0.9527 -8.41508 -52.62614 2.07248 4.32101 17.86552
0.24192 0.56752 -0.07331 175.00197 0 -2.576 4.94898 5.15799 -2.33859 -12.85537 3.56804 -0.90368 53.69451 -1.01502 19.8625 137.62444 4.76507 76.76627 -18.49105 -1.51276 32.70595 -62.46146 63.08009 -121.05297 -77.80197 9.82832 -0.19803 12.2175 10.79643 -21.03797 12.24659 -8.55687 -7.70675 28.09225 0.70825 -9.06757 -52.59105 1.74819 4.18754 17.94206
0.24355 0.5675 -0.07369 175.48601 0 -2.69019 4.58658 5.14878 -2.61701 -11.39021 3.46155 -1.21367 52.24015 -0.35988 18.70683 137.62445 5.59305 75.45417 -18.05269 -3.22828 32.89127 -62.55412 63.01794 -120.91791 -77.81732 9.70248 0.00116 12.28339 9.83726 -21.05478 12.25075 -8.27763 -7.22787 28.35726 0.46602 -9.90885 -52.67806 1.41536 4.03667 18.04637
0.24514 0.56751 -0.07408 175.94509 0 -2.76533 4.24954 5.08459 -2.92308 -10.03339 3.45275 -1.50182 50.94488 0.21425 17.4961 137.62445 6.29463 74.159 -17.57309 -4.84344 32.96651 -62.63512 62.93574 -120.75037 -77.82798 9.597 0.20446 12.33883 9.03132 -21.10045 12.24464 -8.0812 -6.88345 28.58956 0.222 -10.6699 -52.71186 1.08675 3.89472 18.13681
0.24675 0.56755 -0.07446 176.40347 0 -2.83027 3.90025 5.0202 -3.24956 -8.59632 3.40247 -1.83986 49.59092 0.84138 16.28248 137.62446 6.94263 72.69021 -17.11073 -6.57785 33.10574 -62.72344 62.88588 -120.53893 -77.85853 9.47654 0.42287 12.37491 8.16338 -21.16804 12.24782 -7.84589 -6.48558 28.82552 -0.02182 -11.40827 -52.73526 0.75203 3.74768 18.23163
0.24834 0.56752 -0.07487 176.87482 0 -2.93843 3.56541 4.98485 -3.5152 -7.28188 3.39491 -2.07902 48.28496 1.39206 15.09833 137.62446 7.78298 71.60809 -16.64017 -8.09811 33.15775 -62.80182 62.77265 -120.44259 -77.84811 9.3778 0.60614 12.45786 7.34263 -21.17271 12.23854 -7.66063 -6.12429 29.0698 -0.26373 -12.23727 -52.80917 0.43041 3.60772 18.32401
0.24989 0.56733 -0.07537 177.37222 0 -3.14602 3.28019 5.00648 -3.63241 -6.34343 3.52468 -2.03154 47.17949 1.70467 14.01339 137.62446 9.00402 71.49311 -16.06671 -8.99907 32.95309 -62.84873 62.49775 -120.64321 -77.72107 9.35461 0.69671 12.6702 6.76425 -21.01998 12.18572 -7.52385 -5.97002 29.32427 -0.50856 -13.28434 -52.99855 0.13965 3.48775 18.40617
0.25141 0.56708 -0.07591 177.87924 0 -3.39389 3.01194 5.05236 -3.68972 -5.53773 3.70886 -1.88467 46.1354 1.93277 12.94538 137.62446 10.42061 71.78179 -15.49478 -9.67566 32.64709 -62.88481 62.15437 -120.95694 -77.55355 9.35348 0.75259 12.92664 6.23202 -20.80704 12.12175 -7.45588 -5.84861 29.58372 -0.74973 -14.41351 -53.23376 -0.13563 3.37627 18.4845
0.25294 0.56686 -0.07645 178.37833 0 -3.62209 2.73784 5.08326 -3.77208 -4.6795 3.88623 -1.78778 45.07087 2.19233 11.83586 137.62446 11.80067 71.9499 -14.96389 -10.4455 32.36389 -62.92519 61.82837 -121.21874 -77.40696 9.33763 0.82475 13.15728 5.65064 -20.62339 12.06843 -7.44874 -5.68112 29.83776 -0.98729 -15.49611 -53.4442 -0.4126 3.26347 18.5626
0.25449 0.56665 -0.07694 178.89445 0 -3.85898 2.45413 5.1348 -3.86117 -3.78218 3.98172 -1.67126 43.9649 2.48651 10.86899 137.62446 12.97877 71.86455 -14.25992 -11.25692 32.18517 -62.96892 61.5602 -121.48609 -77.24959 9.33952 0.89471 13.41383 5.18276 -20.4293 11.99353 -7.08218 -5.64093 30.10746 -1.24731 -16.62468 -53.67509 -0.71268 3.13933 18.64992
0.25598 0.56641 -0.07753 179.3767 0 -4.08643 2.19509 5.14783 -3.92304 -2.99935 4.26259 -1.57196 42.96241 2.68662 9.61309 137.62446 14.60939 72.389 -13.91507 -11.92762 31.7633 -63.00283 61.15647 -121.76725 -77.10516 9.31117 0.96046 13.62597 4.48767 -20.24322 11.95867 -7.43916 -5.34133 30.34496 -1.45942 -17.67414 -53.87323 -0.96061 3.04106 18.71682
0.25727 0.56613 -0.07838 179.76179 0 -4.27533 2.00065 5.04585 -3.92328 -2.51117 5.04738 -1.54197 42.24717 2.64556 7.50681 137.62446 17.53092 74.61595 -14.56732 -12.25115 30.68347 -63.01221 60.38188 -122.06145 -77.00581 9.18534 1.02992 13.70871 3.20379 -20.09808 12.05631 -10.15976 -4.36483 30.49037 -1.54231 -18.487 -53.96429 -1.06979 3.01235 18.72769
0.25848 0.56584 -0.07933 180.11227 0 -4.4533 1.83068 4.90424 -3.8987 -2.13311 6.01639 -1.53307 41.63336 2.51229 5.11881 137.62445 20.88224 77.4211 -15.57866 -12.44195 29.36397 -63.01198 59.47574 -122.36472 -76.92107 9.03 1.0952 13.74448 1.68349 -19.96281 12.19145 -13.54269 -3.12014 30.60315 -1.57668 -19.21579 -54.0211 -1.12665 3.00945 18.71809
0.25972 0.56555 -0.08025 180.47928 0 -4.6377 1.64922 4.78194 -3.88659 -1.69783 6.89908 -1.5161 40.96282 2.42193 2.88892 137.62445 23.97772 79.88374 -16.42243 -12.70218 28.15993 -63.01611 58.63816 -122.66173 -76.82995 8.89406 1.15792 13.79872 0.23789 -19.8206 12.29621 -16.36312 -1.96615 30.73191 -1.63186 -19.98118 -54.09668 -1.2065 2.99464 18.71814
0.26101 0.56527 -0.08114 180.84381 0 -4.8178 1.46946 4.6549 -3.86747 -1.29526 7.79629 -1.48936 40.33556 2.32479 0.52693 137.62444 27.33867 82.69504 -17.28809 -12.91837 26.92289 -63.01995 57.76044 -122.97179 -76.73608 8.7339 1.23804 13.86598 -1.07519 -19.68619 12.45503 -20.2602 -0.93786 30.85631 -1.6922 -20.75753 -54.16088 -1.28932 2.98077 18.7167
0.26218 0.56497 -0.0821 181.2045 0 -5.0032 1.29224 4.52821 -3.85764 -0.85163 8.70407 -1.48917 39.64591 2.22057 -1.6198 137.62444 30.24246 84.91484 -18.18923 -13.19497 25.70145 -63.02221 56.93686 -123.2553 -76.65224 8.61652 1.28164 13.89525 -2.71201 -19.53921 12.51266 -22.10839 0.40765 30.98159 -1.73024 -21.48851 -54.23945 -1.3535 2.97111 18.71342
0.26306 0.56461 -0.08323 181.56824 0 -5.20976 1.11212 4.40997 -3.88164 -0.24503 9.61468 -1.55825 38.722 2.12277 -3.16599 137.62444 31.80849 85.33429 -19.13648 -13.69464 24.56153 -63.02292 56.28885 -123.46259 -76.59004 8.62777 1.2233 13.82313 -5.26102 -19.35109 12.26086 -17.81296 2.63672 31.12027 -1.71928 -22.12586 -54.37027 -1.38107 2.96573 18.71078
0.26383 0.56423 -0.08443 181.92816 0 -5.42085 0.93438 4.29367 -3.91574 0.40295 10.52533 -1.65351 37.73876 2.0208 -4.47463 137.62445 32.89299 85.14108 -20.10045 -14.25633 23.45055 -63.02235 55.70203 -123.64213 -76.53805 8.68235 1.12898 13.71549 -8.1129 -19.15111 11.90953 -11.49045 5.16137 31.26031 -1.68744 -22.71734 -54.51549 -1.3914 2.96389 18.70669
0.26464 0.56386 -0.0856 182.28653 0 -5.62742 0.75801 4.17789 -3.94421 1.018 11.42408 -1.73665 36.80647 1.9189 -5.85036 137.62445 34.17746 85.24329 -21.03295 -14.77518 22.33914 -63.02212 55.09072 -123.83456 -76.48323 8.71482 1.05267 13.62929 -10.77734 -18.95945 11.61793 -6.31106 7.5039 31.3978 -1.66468 -23.32289 -54.65135 -1.40828 2.96106 18.70302
0.26548 0.56348 -0.08679 182.65805 0 -5.84501 0.57205 4.05511 -3.97632 1.68942 12.38149 -1.82178 35.77539 1.82141 -7.40662 137.62445 35.55688 85.29489 -22.07817 -15.35123 21.16262 -63.02255 54.45802 -124.02726 -76.42141 8.75651 0.96903 13.51975 -13.6633 -18.75549 11.26789 -0.2278 10.06112 31.54254 -1.64192 -23.95668 -54.79876 -1.42862 2.95643 18.70039
0.26624 0.56312 -0.08793 183.0011 0 -6.03963 0.40644 3.94752 -4.00337 2.25387 13.21178 -1.90825 34.93601 1.715 -8.52908 137.62446 36.61831 85.29794 -22.88866 -15.82448 20.13544 -63.02147 53.88956 -124.21133 -76.37623 8.78967 0.89238 13.45019 -16.15287 -18.5745 11.01363 4.47515 12.23339 31.67263 -1.61486 -24.51872 -54.92494 -1.4385 2.95618 18.69459
0.26679 0.56281 -0.0889 183.27228 0 -6.18018 0.29515 3.88468 -4.01579 2.52062 13.71171 -1.99582 34.6297 1.58368 -8.49022 137.62446 36.91858 85.32075 -23.03803 -16.00099 19.48329 -63.01613 53.45508 -124.38951 -76.37641 8.78897 0.84228 13.5069 -17.50347 -18.45785 11.06413 4.76626 13.30567 31.76461 -1.58064 -24.91874 -54.99758 -1.42132 2.96616 18.68529
0.26726 0.56253 -0.08981 183.51423 0 -6.29546 0.20435 3.83665 -4.02243 2.67745 14.0789 -2.0829 34.52066 1.44332 -8.02552 137.62446 36.91333 85.31206 -22.95021 -16.07216 18.98731 -63.0094 53.0892 -124.55778 -76.39271 8.77839 0.80091 13.60403 -18.43662 -18.36532 11.21163 3.62 13.97137 31.84143 -1.5428 -25.24253 -55.04678 -1.39388 2.98066 18.66979
0.26776 0.56225 -0.09073 183.76568 0 -6.41558 0.10492 3.77988 -4.03078 2.87997 14.49241 -2.16778 34.32685 1.30956 -7.76866 137.62446 37.04646 85.31236 -22.9753 -16.19079 18.44091 -63.00367 52.71115 -124.72322 -76.40015 8.77222 0.75644 13.67812 -19.54192 -18.26269 11.30369 3.20502 14.80002 31.92366 -1.50754 -25.58703 -55.10137 -1.37434 2.99334 18.65692
0.2683 0.56192 -0.0917 184.03214 0 -6.56425 0.00277 3.73161 -4.04382 3.10163 14.96524 -2.26434 34.10714 1.16877 -7.44366 137.62445 37.16543 85.3145 -22.98058 -16.31334 17.80862 -62.99649 52.25461 -124.91876 -76.41385 8.76756 0.70651 13.77041 -20.73756 -18.15494 11.43893 2.53538 15.73552 32.01235 -1.46893 -25.9943 -55.17919 -1.34485 3.00435 18.65407
0.26874 0.5617 -0.09256 184.26147 0 -6.64694 -0.08896 3.66915 -4.04497 3.25707 15.28288 -2.33545 33.9931 1.0359 -7.16201 137.62445 37.24707 85.31277 -22.9693 -16.4018 17.39194 -62.99182 51.97742 -125.04952 -76.41893 8.75726 0.67119 13.83517 -21.63506 -18.06509 11.51023 2.02272 16.34274 32.08374 -1.43501 -26.24632 -55.20222 -1.32843 3.02091 18.61725
0.26901 0.56172 -0.09321 184.38686 0 -6.55726 -0.15614 3.56351 -4.02009 3.25461 15.20524 -2.34183 34.08992 0.96498 -7.1109 137.62448 37.3037 85.31358 -22.97647 -16.42326 17.53228 -62.99591 52.17554 -125.00492 -76.38981 8.72993 0.669 13.81112 -21.86673 -18.00912 11.36662 2.33362 16.18431 32.11193 -1.43044 -26.14843 -55.08452 -1.39827 3.04122 18.58979
0.26919 0.56185 -0.09376 184.4776 0 -6.40115 -0.21365 3.44298 -3.98234 3.18972 14.97625 -2.32148 34.29417 0.89388 -7.1192 137.62439 37.33347 85.3132 -22.97135 -16.41381 17.8835 -63.00212 52.55187 -124.89555 -76.35247 8.69773 0.68294 13.75842 -21.80018 -17.97353 11.15815 2.8333 15.69921 32.12235 -1.42841 -25.8859 -54.91106 -1.47333 3.06798 18.5107
0.2694 0.56195 -0.09433 184.58973 0 -6.27332 -0.2762 3.32975 -3.94702 3.15419 14.81552 -2.30962 34.469 0.79987 -7.09561 137.62451 37.37773 85.31325 -22.97095 -16.41692 18.1389 -63.00664 52.84868 -124.81509 -76.3232 8.67017 0.69219 13.72129 -21.83319 -17.9333 10.98996 3.21307 15.33638 32.14122 -1.41457 -25.65963 -54.76051 -1.51416 3.09975 18.38696
0.26968 0.56199 -0.09497 184.67664 0 -6.15352 -0.33558 3.21548 -3.92619 3.10972 14.65072 -2.31313 34.56254 0.80843 -7.07283 137.62447 37.40788 85.31381 -22.97643 -16.42137 18.40218 -63.01495 53.1426 -124.7359 -76.2767 8.63224 0.68804 13.67596 -22.00651 -17.86895 10.78108 3.69413 15.07455 32.16085 -1.44364 -25.59368 -54.62138 -1.68695 3.10184 18.54523
0.26977 0.56217 -0.09545 184.80869 0 -6.00048 -0.39922 3.09878 -3.87186 3.07169 14.46226 -2.27837 34.85618 0.59611 -7.07411 137.62411 37.45695 85.31161 -22.95667 -16.41871 18.69396 -63.01494 53.48284 -124.63954 -76.26331 8.61462 0.71871 13.6389 -21.81862 -17.86621 10.63828 4.01985 14.52449 32.17126 -1.38644 -25.15546 -54.44308 -1.58898 3.16261 18.11062
